<svg xmlns="http://www.w3.org/2000/svg" viewBox="74.25 0 76.05 20.700000000000003" style="max-height: 500px" width="76.05" height="20.700000000000003">
 <defs>
  <path id="prefix__a" d="m0.09,0l18.19,0l0,20.2l-18.19,0l0,-20.2z"/>
 </defs>
 <g class="layer">
  <title>Layer 1</title>
  <g id="svg_1" fill-rule="evenodd" fill="none">
   <path id="svg_2" fill-rule="nonzero" fill="#bfbfbf" d="m23.8,17.46c-0.94,0.64 -2.43,0.95 -4.48,0.95l-2.9,0c-0.4,0 -0.82,0 -1.27,-0.02c-0.45,-0.02 -0.89,-0.07 -1.33,-0.16c-0.43,-0.08 -0.84,-0.21 -1.24,-0.37c-0.39,-0.16 -0.75,-0.4 -1.05,-0.69c-0.31,-0.31 -0.56,-0.67 -0.72,-1.08c-0.19,-0.42 -0.27,-0.95 -0.27,-1.57l0,-9.61l2.65,0l0,9.46c0,1 0.98,1.5 2.93,1.5l3.57,0c1.92,0 2.89,-0.5 2.89,-1.5l0,-9.46l2.62,0l0,9.61c0,1.33 -0.47,2.31 -1.4,2.94zm-18.35,-12.55l2.64,0.01l-0.11,7.47l0,0c0,4.12 -1.6,5.86 -4.34,6.43c-2.74,0.58 -3.61,0.57 -3.61,0.57l-0.03,-2.8c1.09,-0.06 2.73,-0.23 3.77,-0.63c0.95,-0.36 1.7,-1.24 1.62,-3.57l0.06,-4.95l0,-2.53zm40.76,0c0.44,0 0.8,0.14 1.06,0.44c0.27,0.29 0.41,0.67 0.41,1.15l0,12.01l-2.65,0l0,-8.8l-5.66,8.08c-0.2,0.28 -0.43,0.5 -0.69,0.64c-0.26,0.13 -0.55,0.21 -0.84,0.21c-0.65,0 -1.17,-0.29 -1.57,-0.84l-5.74,-8.16l0,8.87l-2.65,0l0,-12.12c0,-0.47 0.13,-0.83 0.39,-1.09c0.27,-0.26 0.61,-0.39 1.03,-0.39c0.61,0 1.1,0.23 1.45,0.69l7.1,9.69l6.96,-9.67c0.33,-0.48 0.8,-0.71 1.4,-0.71zm18.34,0c0.61,0 1.11,0.29 1.5,0.89l7.74,12.69l-2.98,0l-2.19,-3.66l-8.19,0l-2.14,3.66l-3.13,0l7.9,-12.67c0.39,-0.61 0.88,-0.91 1.49,-0.91zm-11.63,0l0,13.5l-2.65,0l0,-13.5l2.65,0zm11.55,3.36l-2.53,4.02l5.1,0l-2.57,-4.02z"/>
   <g id="svg_3" fill="#FFF">
    <path transform="translate(104.646 4.54)" id="svg_4" fill="#bfbfbf" d="m12.49,4.62c0,-0.48 -0.04,-0.87 -0.12,-1.17c-0.08,-0.3 -0.22,-0.55 -0.42,-0.72c-0.2,-0.18 -0.46,-0.3 -0.77,-0.37c-0.32,-0.07 -0.7,-0.1 -1.16,-0.1l-7.86,0l0,5.79l7.89,0c0.46,0 0.85,-0.02 1.16,-0.09c0.31,-0.06 0.56,-0.17 0.75,-0.33c0.19,-0.17 0.33,-0.39 0.41,-0.68c0.08,-0.29 0.12,-0.67 0.12,-1.13l0,-1.2zm-10.33,5.37l0,4.08l-2.16,0l0,-13.84l10.04,0c0.88,0 1.61,0.08 2.2,0.23c0.59,0.16 1.06,0.41 1.42,0.76c0.36,0.35 0.61,0.81 0.76,1.36c0.15,0.56 0.23,1.24 0.23,2.05l0,1.18c0,0.81 -0.08,1.48 -0.22,2.02c-0.14,0.53 -0.39,0.96 -0.74,1.28c-0.35,0.33 -0.83,0.56 -1.42,0.68c-0.6,0.13 -1.34,0.2 -2.23,0.2l-7.88,0zm16.89,-1.25l7.22,0l-3.61,-6.25l-3.61,6.25zm8.31,1.91l-9.4,0l-1.97,3.42l-2.53,0l7.59,-13.02c0.18,-0.31 0.38,-0.56 0.62,-0.76c0.24,-0.19 0.58,-0.29 1.03,-0.29c0.43,0 0.76,0.1 1.01,0.29c0.24,0.2 0.45,0.45 0.62,0.76l7.56,13.02l-2.54,0l-1.99,-3.42zm8.28,3.42l0,-6.68l-7.53,-7.16l2.96,0l5.69,5.28l5.78,-5.28l2.81,0l-7.58,7.18l0,6.66l-2.13,0z"/>
   </g>
   <g transform="translate(75.031)" id="svg_5">
    <path id="svg_6" fill="#bfbfbf" d="m18.28,2.15c-0.04,-0.22 -0.07,-0.44 -0.1,-0.67l-0.03,-0.21l-0.23,0c-3,0 -6.43,-0.5 -8.53,-1.24l-0.09,-0.03l-0.09,0.03c-2.09,0.74 -5.52,1.24 -8.53,1.24l-0.22,0l-0.03,0.21c-0.27,1.71 -0.38,3.31 -0.33,4.79c0.22,7.79 4.42,12.53 9.13,13.91l0.08,0.02l0.07,-0.02c0.02,-0.01 0.05,-0.02 0.08,-0.03c3.19,-0.96 6.14,-3.48 7.76,-7.45c-0.14,-0.1 -0.29,-0.2 -0.43,-0.31l-0.54,-0.49c-0.07,-0.07 -0.13,-0.14 -0.2,-0.21c-0.73,2.06 -1.83,3.8 -3.27,5.08c-0.97,0.85 -2.08,1.5 -3.32,1.93l-0.16,-17.24l0.08,0.02l0.08,0.03c1.95,0.6 4.57,1.01 7.22,1.11l0.23,0.01l0.02,0.21l0.01,0.08c0.08,-0.06 0.16,-0.12 0.24,-0.17c0.19,-0.13 0.39,-0.26 0.6,-0.37c0.16,-0.08 0.33,-0.16 0.5,-0.23"/>
    <path id="svg_7" fill="#bfbfbf" d="m24.3,6.63l-1.83,1.76l0.43,2.47l-2.26,-1.17l-2.26,1.17l0.43,-2.48l-1.83,-1.75l2.53,-0.36l1.13,-2.26l1.13,2.26l2.53,0.36zm0.58,-1.33c-0.08,-0.13 -0.17,-0.26 -0.27,-0.39c-0.14,-0.19 -0.3,-0.36 -0.47,-0.53c-0.05,-0.05 -0.11,-0.11 -0.17,-0.16c-0.11,-0.11 -0.24,-0.21 -0.36,-0.3c-0.13,-0.09 -0.26,-0.18 -0.4,-0.26c-0.07,-0.04 -0.14,-0.08 -0.21,-0.12c-0.7,-0.38 -1.51,-0.59 -2.36,-0.59c-0.86,0 -1.66,0.21 -2.37,0.59c-0.07,0.04 -0.14,0.08 -0.2,0.12c-0.14,0.08 -0.27,0.17 -0.4,0.26c-0.13,0.09 -0.25,0.19 -0.37,0.3c-0.06,0.05 -0.11,0.1 -0.17,0.16c-0.17,0.17 -0.32,0.34 -0.47,0.53c-0.43,0.56 -0.73,1.22 -0.88,1.94c-0.07,0.31 -0.1,0.64 -0.1,0.98c0,0.51 0.08,0.99 0.22,1.45c0.07,0.23 0.16,0.45 0.27,0.67c0.07,0.14 0.14,0.28 0.23,0.41c0.04,0.07 0.08,0.13 0.12,0.2c0.09,0.13 0.19,0.25 0.29,0.37c0.2,0.24 0.43,0.47 0.67,0.67c0.13,0.1 0.25,0.19 0.38,0.28c0.14,0.08 0.27,0.17 0.41,0.24c0.71,0.38 1.51,0.59 2.37,0.59c0.85,0 1.66,-0.21 2.36,-0.59c0.07,-0.04 0.14,-0.08 0.21,-0.12c0.2,-0.12 0.4,-0.26 0.58,-0.4c0.13,-0.1 0.24,-0.21 0.36,-0.32c0.11,-0.11 0.21,-0.23 0.32,-0.35c0.1,-0.12 0.19,-0.24 0.28,-0.37c0.05,-0.07 0.09,-0.13 0.13,-0.2c0.46,-0.74 0.72,-1.6 0.72,-2.53c0,-0.93 -0.26,-1.79 -0.72,-2.53z"/>
   </g>
  </g>
 </g>
</svg>